<?xml version="1.0" encoding="utf-8"?>
<!-- Generator: Adobe Illustrator 23.0.1, SVG Export Plug-In . SVG Version: 6.00 Build 0)  -->
<svg version="1.1" id="Layer_1" xmlns="http://www.w3.org/2000/svg" xmlns:xlink="http://www.w3.org/1999/xlink" x="0px" y="0px"
	 viewBox="0 0 300 300" style="enable-background:new 0 0 300 300;" xml:space="preserve">
<style type="text/css">
	.st0{fill:#030303;}
	.st1{fill:#060606;}
	.st2{fill:#010101;}
	.st3{fill:#F3F3F1;}
	.st4{fill:#F2F2F0;}
	.st5{fill:#F2F1F0;}
	.st6{fill:#F3F1F1;}
	.st7{fill:#F3F1F0;}
	.st8{fill:#050605;}
</style>
<g>
	<path class="st0" d="M256.56,22.51c3.14-0.03,6.29-0.02,9.44-0.01c0.01,0.44,0.02,1.34,0.02,1.78c-1.22,0.04-2.43,0.08-3.63,0.12
		c0.04,3.02,0.01,6.04,0,9.06c-0.74,0.01-1.48,0.02-2.21,0.03c-0.03-3.04,0-6.07-0.01-9.1c-1.19-0.02-2.38-0.02-3.57-0.02
		C256.59,23.91,256.56,22.98,256.56,22.51"/>
	<path class="st0" d="M92.89,251.25c1.69-0.02,3.44-0.1,4.9,0.9c0.4,1.82,1.26,3.94-0.06,5.6c-1.11,1.57-3.16,1.51-4.87,1.61
		C92.73,256.64,92.89,253.95,92.89,251.25"/>
	<path class="st1" d="M267.73,22.65c1.3-0.06,2.61-0.13,3.92-0.16c0.86,2.53,1.73,5.06,2.7,7.55c1.06-2.46,1.91-5,2.79-7.52
		c1.07-0.01,2.13-0.02,3.21-0.04c0.04,3.66,0.01,7.32,0.01,10.98c-0.51,0.01-1.53,0.03-2.04,0.04c-0.04-2.86-0.02-5.71-0.02-8.57
		c-1.07,2.81-2,5.67-2.96,8.52c-0.62,0.01-1.23,0.03-1.83,0.05c-0.91-2.64-1.74-5.3-2.8-7.87c-0.36,2.59-0.16,5.21-0.17,7.82
		c-0.92,0.02-1.83,0.01-2.74-0.02C267.77,29.83,267.85,26.23,267.73,22.65"/>
	<path class="st2" d="M25.66,36.53c2.41-0.59,4.84,0.15,7.27,0.27c4.32,0.34,8.66-0.09,12.98-0.29c2.46-0.1,4.9,0.42,7.37,0.4
		c6.37-0.3,12.76-0.61,19.14-0.27c7.62,0.21,15.24-0.71,22.85,0c6.38,0.54,12.75-0.65,19.13-0.21c11.15,0.54,22.34-0.21,33.47,0.78
		c4.29,0.32,8.58-0.02,12.87,0.2c8.05,0.43,16.07-0.71,24.12-0.69c5.94,0.04,11.93-0.6,17.84,0.34c2.21,0.41,4.41-0.12,6.58-0.48
		c2.96-0.49,5.98-0.29,8.98-0.22c4.89,0.17,9.78-0.31,14.66,0.19c6.63,0.61,13.29-0.01,19.92-0.35c0.86-0.07,1.72,0.02,2.58,0.15
		c-3.08,1.51-6.31,2.66-9.47,3.98c-6.29,2.87-13.31,3.67-19.66,6.37c-3,2.95-7.53,1.56-11.25,2.16c-4.68,0.84-9.44,0.28-14.16,0.6
		c-2.48,0.22-4.91-0.54-7.39-0.37c-15.45,0.51-30.9,0.23-46.35,0.3c-36.38-0.04-72.77-0.14-109.16-0.04
		c-0.03,0.94-0.17,1.87-0.15,2.8c0.19,11.53-0.12,23.06,0.18,34.59c0.03,1.38-0.28,2.73-0.56,4.07c-3.66-2.19-8.12-1.73-12.19-1.35
		c-0.61-6.25,0.07-12.52,0.17-18.78c0.37-5.97-0.42-11.93-0.08-17.89c0.14-2.49,0.07-4.98-0.23-7.45
		C24.74,42.38,25.34,39.45,25.66,36.53"/>
	<path class="st2" d="M265.74,39.95c5.03-1.12,9.93-2.96,15.11-3.28c-1.07,3.13-3.58,5.47-4.66,8.59
		c-1.33,3.71-2.64,7.46-4.59,10.89c-1.18,2.3-3.98,2.53-5.99,3.76c-1.98,1.24-4.39,0.82-6.58,1.2c-3.6,0.66-6.9,2.42-10.49,3.08
		c-2.8,0.54-5.66,0.71-8.43,1.37c-9.21,2.81-18.55,5.23-27.98,7.2c0.12,0.15,0.35,0.48,0.47,0.63c-7.98,2.09-16,4.03-24.03,5.92
		c-12.48,3.63-25.46,5.39-37.79,9.57c9.47-0.18,18.69-2.7,28-4.23c1.98-0.39,4.11,0.36,5.99-0.59c2.38-1.09,5-1.39,7.56-1.82
		c5.32-0.89,10.51-3.17,15.99-2.36c7.72-2.69,15.9-3.7,24.03-4.3c4.75-0.48,9.63-0.45,14.19-2.11c-0.11-0.18-0.33-0.53-0.44-0.71
		c1.93-0.21,3.87-0.38,5.79-0.67c4.14-0.55,8.02-2.48,12.26-2.34c0.03,2.34-0.57,4.66-2.1,6.48c-1.83,2.28-2.66,5.12-4.14,7.6
		c-1.22,2.27-5.01,2.09-5.29,5c-0.25,2.63-1.62,6.06-4.63,6.33c-9.77-0.51-19.42,1.57-29.15,2.09c-5.09,0.24-10.19,0.11-15.27,0.48
		c-0.9,0.03-1.8,0.26-2.42,0.93c-0.66-0.8-1.41-1.53-2.12-2.28c-0.49,0.88-0.98,1.77-1.43,2.68c-1.59,0.18-3.19,0.33-4.76,0.64
		c-4.85,1.01-9.83,0.93-14.75,1.06c-6.4,0.06-12.78,0.79-19.19,0.49c-1.44-0.09-2.86,0.19-4.25,0.52c0.03,0.38,0.07,1.12,0.09,1.5
		c4.47-0.22,8.89,0.36,13.33,0.71c0.26,0.23,0.78,0.7,1.04,0.94c2.58-0.27,5.17-0.84,7.78-0.57c5.34,0.51,10.65-1.33,15.98-0.4
		c2.92,0.52,5.76-0.7,8.68-0.39c3.05,0.43,6.12-0.51,9.15,0.2c3.29,0.71,6.66,0.33,9.98,0.09c2.11-0.26,4.06,0.82,6.13,0.96
		c2.06-0.23,4.08-1.19,6.2-0.85c4.97,1.36,9.78-1.46,14.79-1.07c-0.04,0.66-0.1,1.32-0.17,1.98c-1.28,1.73-3.22,3.15-3.63,5.38
		c-0.47,2.24-1.11,4.44-1.99,6.57c-0.16-0.05-0.49-0.15-0.66-0.2c-1.44,3.16-3.41,6.81-7.12,7.57c-2.48,0.01-4.93-0.46-7.4-0.61
		c-2.76-0.19-5.28-1.43-7.95-2c-2.25-0.48-4.56,0.1-6.82-0.11c-1.7-0.19-3.34-0.75-5.02-1.05c-2.43-0.44-4.9,0.31-7.33-0.21
		c-3.94-0.88-8.05-0.8-11.83-2.31c-2.44,0.14-4.92,0.55-7.31-0.18c-3.45-1.01-7.13-0.53-10.56-1.58c-3.59-1.11-7.39-0.87-11.07-1.46
		c-0.95-0.2-1.62,0.73-2.42,1.07c3.19,2.08,7.12,1.83,10.62,2.98c1.77,0.52,2.87,2.09,4.27,3.17c3.43-1.09,6.92,0.2,10.41,0.12
		c3.43,0.61,6.74,1.87,10.26,2.1l-0.32,0.7c4.48,0.58,8.99,1.07,13.38,2.14c1.75,0.37,3.09,1.59,4.15,2.97
		c4.39-1.18,8.83,0.19,13.12,1.09c3.01,0.71,6.26-0.12,9.13,1.31c-0.26,3.5-2.98,5.95-4.69,8.81c-0.67,1.2-1.81,1.95-3.14,2.24
		c0.22,1.11,0.86,2.32,0.1,3.37c-1.57,2.93-2.6,6.24-4.89,8.72c-1.95,0.19-3.79-0.88-5.57-1.52c-3.33-1.65-6.87-2.75-10.39-3.92
		l0.32-0.77c-2.96-2.17-6.79-2.12-9.93-3.87c-2.64-1.39-5.77-1.51-8.33-3.09c-1.59-0.95-3.38-1.4-5.17-1.8
		c-2.51-0.46-4.24-2.6-6.65-3.33c-1.98-0.63-4-1.14-5.94-1.88c-3.71-1.42-7.86-1.58-11.4-3.44c-2.23-1.93-5.25-2.33-8.05-2.8
		c-2.5,0.07-5.08,0.31-7.33-1c3.5,12.99,6.13,26.19,9.36,39.25c1.4,5.47,2.38,11.03,3.77,16.5c1.01,4.38,2.37,8.68,3.13,13.13
		c-0.88,0.45-1.75,0.9-2.62,1.36c1.36,7.18,3.17,14.26,4.76,21.39c1.3,5.85,2.53,11.72,3.35,17.65c0.15-0.1,0.46-0.3,0.61-0.4
		c0.39,0.89,0.8,1.78,1.21,2.68c30.38,0.01,60.76-0.15,91.14,0.08c-0.22-9.5-0.04-19-0.2-28.5c-0.03-35.86-0.05-71.72-0.12-107.58
		c0.07-3.05-0.31-6.16,0.31-9.17c1.93-4.72,5.9-8.23,8.14-12.78c0.65-1.33,1.54-2.53,2.54-3.62c1.57,4,0.22,8.28,0.36,12.41
		c-0.3,6,1.16,11.9,1.02,17.89c0.22,6.68-1.72,13.43-0.02,20.05c0.13,8.05,0.05,16.11,0.01,24.16c-1.12,16.52,0.59,33.09-0.08,49.62
		c-0.41,3.67-0.57,7.36-0.41,11.05c0.3,9.91,0.41,19.82,0.5,29.73c0.45,9.71-1.48,19.37-0.77,29.08c0.14,1.46,0.66,2.85,0.99,4.27
		c-0.04,0.3-0.11,0.89-0.14,1.19c-30.36-0.25-60.72-0.04-91.08-0.41c-7.44-0.03-14.88-0.4-22.31,0.07
		c-7.42,0.44-14.87,0.39-22.26-0.46c-4.31-0.41-8.6,0.36-12.9,0.46c-15.84,0.31-31.69,0.25-47.53,0.01
		c-4.55-0.06-9.09-0.39-13.62-0.14c-10.68,0.88-21.4-0.12-32.1,0.35c-0.01-0.77-0.01-1.54-0.01-2.3
		c0.07-11.31,0.12-22.62-0.04-33.94c-0.14-6.8-0.42-13.62,0.2-20.41c-0.09-2.87-0.73-5.7-0.48-8.57c0.52-5.52-0.07-11.04,0.09-16.56
		c0.12-5.2-0.1-10.39-0.12-15.59c-0.04-4.74,0.64-9.47,0.38-14.22c-0.44-6.94-0.15-13.89-0.51-20.83c0.14-0.06,0.43-0.15,0.58-0.21
		c2.52,5.27,2.42,11.19,4.14,16.68c0.33,1.24,0.64,2.49,0.95,3.74l0.61-0.52c2.46,7.52,4.39,15.21,5.53,23.04
		c0.3,2.94,1.88,5.88,0.79,8.83c0.92,3.17,0.45,6.47,0.31,9.7c0.05,11.16,0.06,22.33-0.02,33.48c30.23-0.25,60.47-0.04,90.7-0.11
		c4.53-0.08,9.07,0.44,13.6,0.03c-1.06-5.46-2.7-10.79-3.7-16.27c-0.56-1.86-0.17-3.77-0.1-5.65c-0.4-1.03-1.61-1.28-2.44-1.83
		c-1.35-3.99-1.49-8.33-3.16-12.2c-0.86-0.02-1.71-0.02-2.56-0.02c-5.37-23.09-10.72-46.19-16.14-69.28
		c-3.67,0.27-7.2,1.4-10.65,2.6c-1.77,1.49-3.2,3.38-5.11,4.71c-2.43,1.74-3.98,4.41-6.41,6.13c-3.49,7.31-6.06,15.06-7.33,23.05
		c0.35,2.85,0.2,5.81,1.24,8.54c0.64,1.69,0.96,3.48,0.97,5.29c-3.74,0.61-7.46,1.37-11.15,2.22c-4.19,1.72-8.8,1.91-13.07,3.38
		c-1.95,0.66-3.98,1.02-6.02,1.32c0.08,1,0.09,2.01,0.02,3.02c-4.42,1.01-8.83,2.09-13.26,3.05c-0.99-2.75-1.37-5.67-2.09-8.5
		c-0.72-3.24-1.86-6.44-1.8-9.8c0.25-2.43-1.37-4.41-1.91-6.66c-1.03-4.01-1.9-8.07-2.9-12.09c-1.12-4.82-2.37-9.62-3.19-14.5
		l-0.69,0.4c-0.72-3.69-1.72-7.31-2.59-10.96c-0.15-2.01-0.1-4.03-0.2-6.03c-0.65-0.82-1.57-1.52-1.87-2.56
		c-1.62-8.24-3.55-16.42-5.46-24.6c-0.54-1.93-1.04-3.87-1.35-5.86c4.81-0.83,9.43-2.64,14.29-3.09c0.48,1.15,0.93,2.33,1.31,3.52
		c3.4-0.82,6.82-1.52,10.34-1.52c4.92-2.71,10.59-3.22,15.96-4.5c3.66-0.82,7.2-2.17,10.96-2.48c8.86-1.72,17.53-4.3,26.35-6.24
		c0.95-0.3,2.15-0.17,2.89-0.94c-0.52-1.93-1.41-3.75-1.56-5.76c3.21-0.66,6.43-1.29,9.62-2.03c-0.12-0.15-0.35-0.45-0.47-0.6
		c5.9-1,11.65-2.68,17.47-4.01c0.48,2.15,0.83,4.32,1.29,6.47c2.8-0.24,5.51-0.97,8.18-1.77c-0.06-0.17-0.2-0.52-0.27-0.69
		c2.9-1.06,5.97-1.14,8.97-0.46c0.92-0.88,1.88-1.84,3.21-2.01c6.23-1.16,12.05-3.9,18.36-4.69c0.85,0.36,1.6,0.99,2.53,1.12
		c1.43-0.75,2.69-1.82,4.19-2.46c3.6-1.55,7.55-1.82,11.36-2.61c2.77-0.57,5.29-1.97,8.06-2.59c6.5-1.41,13.07-2.57,19.62-3.76
		c3.24-1.04,6.53-1.92,9.92-2.32c3.97-0.4,7.55-2.25,11.36-3.29c3-0.83,5.99-1.7,9.05-2.3l-0.46-0.52
		c4.32-1.11,8.55-2.52,12.67-4.21C258.08,41.19,262.04,41.08,265.74,39.95 M31.32,245.51c0.04,0.43,0.1,1.28,0.14,1.71
		c1.75,0.7,2.26,2.68,2.85,4.28c1.76,6.46,4.09,12.76,5.66,19.28c1.16-0.01,2.32-0.01,3.48-0.02c1.17-4.19,2.42-8.38,3.87-12.48
		c1.35,4.13,2.55,8.31,3.72,12.49c1.15-0.01,2.3-0.01,3.45-0.01c0.82-3.21,2.03-6.29,2.8-9.5c0.18,0.05,0.54,0.15,0.72,0.2
		c0.77-3.08,2.01-6.01,2.64-9.12c0.44-1.99,1.2-4.27,3.29-5.06c0.08-0.58,0.16-1.15,0.23-1.72c-2.69,0.01-5.39-0.01-8.08-0.01
		c0.06,0.56,0.11,1.13,0.17,1.7c1.03,0.15,2.08,0.3,3.01,0.82c-0.46,1.96-1.04,3.9-1.25,5.92c-0.18-0.09-0.54-0.27-0.72-0.36
		c-0.96,3.58-2.09,7.12-3.31,10.63c-2.02-5.35-3.71-10.86-4.76-16.48c0.71-0.22,1.42-0.42,2.14-0.62c0.04-0.4,0.12-1.22,0.17-1.62
		c-3.03,0.06-6.06,0.06-9.1-0.02c0.01,0.43,0.03,1.3,0.04,1.74c0.32,0.09,0.95,0.29,1.26,0.39c1.06,2.05,1.82,4.24,2.32,6.5
		c-1.02,3.38-2.04,6.76-3.21,10.09c-1.86-5.42-3.85-10.96-4.37-16.69c0.45-0.09,1.36-0.27,1.81-0.35c-0.02-0.43-0.07-1.27-0.09-1.7
		C37.24,245.62,34.28,245.6,31.32,245.51 M242.21,248.92c0.01,0.67,0.02,1.35,0.05,2.04c0.85,0.11,1.72,0.23,2.58,0.36
		c-0.05,5.76,0.43,11.55-0.22,17.28c-0.79,0.06-1.57,0.12-2.35,0.19c-0.02,0.47-0.06,1.41-0.08,1.88c3.25-0.08,6.5-0.12,9.76,0.03
		c-0.03-0.64-0.06-1.28-0.07-1.91c-0.81-0.09-1.61-0.18-2.4-0.27c-0.23-2.49-0.29-4.99-0.22-7.49c0.29,0.08,0.86,0.24,1.15,0.31
		c1.8,3.12,3.62,6.23,5.4,9.36c1.89,0.01,3.78,0.01,5.68,0.01c-0.01-0.43-0.03-1.3-0.04-1.73c-0.83-0.38-1.73-0.76-2.23-1.57
		c-1.57-2.23-2.91-4.61-4.35-6.92c1.36-0.56,2.94-1.06,3.73-2.42c1.17-1.77,0.88-4.01,0.46-5.96c-0.7-2.06-3-3.01-5.02-3.05
		C250.09,248.95,246.12,249.52,242.21,248.92 M70.27,249.06c-1.7,5.51-3.48,11-5.67,16.34c-0.64,1.32-0.87,3.25-2.61,3.52
		c-0.01,0.44-0.05,1.33-0.07,1.78c2.09-0.07,4.19-0.07,6.29-0.02c-0.01-0.46-0.04-1.4-0.05-1.86c-0.44-0.07-1.33-0.2-1.77-0.27
		c0.34-1.43,0.75-2.84,1.24-4.21c2.1,0.01,4.2-0.02,6.31-0.02c0.44,1.34,1.02,2.67,1.14,4.09c-0.43,0.11-1.27,0.31-1.69,0.41
		c-0.06,0.62-0.12,1.25-0.16,1.88c2.79-0.07,5.58-0.06,8.38-0.02c-0.02-0.43-0.07-1.28-0.1-1.7c-0.57-0.43-1.42-0.62-1.64-1.37
		c-2.4-6.07-4.6-12.23-6.38-18.51C72.41,249.08,71.33,249.07,70.27,249.06 M85.83,249.08c0.01,0.47,0.02,1.41,0.02,1.88
		c0.83,0.1,1.66,0.2,2.49,0.31c0.26,5.71,0.28,11.44,0.04,17.16c-0.84,0.13-1.67,0.28-2.5,0.45c-0.04,0.59-0.07,1.19-0.1,1.79
		c3.26-0.09,6.52-0.14,9.78,0.03c-0.02-0.47-0.06-1.41-0.08-1.88c-0.79-0.09-1.58-0.18-2.37-0.27c-0.29-2.59-0.43-5.2-0.1-7.78
		c2.95,2.7,4.19,6.72,6.44,9.97c1.9,0.01,3.8,0,5.7-0.01c-0.01-0.44-0.02-1.33-0.04-1.77c-0.82-0.33-1.75-0.59-2.22-1.4
		c-1.6-2.25-2.92-4.68-4.44-6.97c1.25-0.61,2.71-1.05,3.55-2.24c1.41-1.94,1.22-4.6,0.41-6.73c-1.09-2.12-3.71-2.64-5.89-2.56
		C92.97,249.15,89.4,249.25,85.83,249.08 M108.94,249.08c0,0.47-0.01,1.4-0.01,1.87c1.06,0.13,2.12,0.28,3.18,0.43
		c-0.09,5.74,0.35,11.52-0.26,17.24c-0.98,0.07-1.96,0.13-2.93,0.19c0.01,0.48,0.03,1.43,0.04,1.9c3.38-0.07,6.77-0.15,10.15,0.02
		c0.01-0.46,0.04-1.39,0.06-1.85c-0.81-0.12-1.62-0.25-2.42-0.36c-0.21-2.48-0.25-4.96-0.27-7.44c2.43-0.01,4.86-0.01,7.29,0.02
		c-0.12,2.46,0.17,4.98-0.35,7.41c-0.75,0.14-1.5,0.26-2.25,0.36c-0.02,0.61-0.05,1.22-0.07,1.84c3.22-0.11,6.45-0.08,9.67-0.02
		c-0.01-0.46-0.03-1.38-0.04-1.84c-0.8-0.11-1.59-0.22-2.38-0.32c-0.33-5.41-0.43-10.86-0.06-16.27c-0.08-1.27,1.57-0.99,2.36-1.4
		c0.02-0.41,0.06-1.25,0.08-1.66c-3.22-0.09-6.44,0.04-9.65-0.14c0.02,0.48,0.07,1.45,0.1,1.93c0.79,0.1,1.59,0.2,2.39,0.31
		c0.12,2.45,0.17,4.89,0.15,7.34c-2.43-0.03-4.85-0.02-7.28,0c0.04-2.45-0.11-4.94,0.52-7.34c0.71-0.13,1.43-0.25,2.14-0.38
		c0.01-0.44,0.01-1.31,0.02-1.75C115.74,249.17,112.34,249.21,108.94,249.08 M143.45,249.1c-1.73,6.29-4.09,12.36-6.41,18.45
		c-0.2-0.04-0.59-0.12-0.79-0.16c-0.22,0.83-0.75,1.34-1.59,1.53c-0.06,0.57-0.12,1.16-0.17,1.74c2.31-0.02,4.63-0.02,6.94,0.04
		c-0.02-0.62-0.03-1.24-0.04-1.86c-0.45-0.08-1.35-0.25-1.81-0.33c0.37-1.41,0.82-2.8,1.28-4.18c2.12-0.04,4.25,0.01,6.37,0
		c0.44,1.41,0.88,2.82,1.16,4.28c-0.47,0.04-1.41,0.12-1.88,0.17c-0.03,0.64-0.06,1.28-0.08,1.92c2.83-0.07,5.66-0.08,8.49,0.01
		c0.44-1.84-1.69-2.21-2.09-3.69c-2.24-5.91-4.46-11.83-6.11-17.93C145.62,249.08,144.53,249.09,143.45,249.1 M159.02,249.06
		c-0.03,0.48-0.09,1.45-0.11,1.93c0.79,0.1,1.59,0.22,2.39,0.34c-0.01,5.74-0.33,11.5-0.93,17.21c-0.68,0.1-1.35,0.2-2.02,0.31
		c0.02,0.47,0.06,1.4,0.07,1.87c2.54-0.12,5.08-0.1,7.62-0.02c-0.04-0.65-0.08-1.3-0.11-1.94c-0.48-0.05-1.44-0.15-1.92-0.21
		c-0.27-4.43,0.1-8.87,0.44-13.28c1.77,5.1,3.3,10.26,4.9,15.41c1.1,0.05,2.21,0.09,3.32,0.14c1.89-5.21,3.19-10.6,5.26-15.75
		c0.18,4.47,0.56,8.96,0.43,13.44c-0.76,0.11-1.52,0.22-2.27,0.33c-0.02,0.61-0.04,1.22-0.06,1.83c3.04-0.01,6.09-0.07,9.14,0.05
		c0.01-0.47,0.04-1.41,0.06-1.88c-0.53-0.08-1.59-0.24-2.12-0.32c-0.78-5.71-0.98-11.5-0.96-17.26c0.8-0.11,1.61-0.21,2.43-0.32
		c-0.05-0.63-0.09-1.25-0.12-1.88c-2.45,0.03-4.9,0.06-7.34-0.01c-1.55,5.29-3.17,10.56-5.14,15.72c-2-5.08-3.48-10.35-4.8-15.64
		C164.47,249.06,161.75,249.12,159.02,249.06 M190.16,249.18c-0.01,0.42-0.03,1.26-0.04,1.68c0.82,0.23,1.65,0.44,2.5,0.59
		c-0.17,5.41-0.45,10.83-0.86,16.22c-0.07,1.08-1.46,0.94-2.16,1.28c0.01,0.44,0.02,1.32,0.03,1.76c2.33-0.11,4.67-0.1,7.01-0.02
		c-0.02-0.46-0.06-1.38-0.09-1.85c-0.69-0.15-1.37-0.31-2.05-0.46c-0.07-4.39,0.28-8.78,0.47-13.16c1.99,5.05,3.32,10.34,5.02,15.49
		c1.13,0,2.27,0,3.4-0.01c1.67-5.31,3.34-10.63,5.11-15.9c0.23,4.57,0.63,9.15,0.44,13.74c-0.75,0.09-1.51,0.17-2.25,0.25
		c0.01,0.64,0.03,1.28,0.06,1.93c3.24-0.16,6.48-0.07,9.73-0.04c-0.01-0.46-0.02-1.38-0.02-1.84c-0.92-0.12-1.83-0.19-2.73-0.36
		c-0.77-5.69-0.99-11.49-0.94-17.24c0.78-0.09,1.57-0.17,2.37-0.25c0.01-0.48,0.03-1.44,0.03-1.92c-2.5,0.03-4.99,0.01-7.49,0.02
		c-1.58,5.26-3.11,10.54-5.1,15.68c-2.02-5.1-3.46-10.39-4.85-15.68C195.22,249.06,192.69,249.06,190.16,249.18 M220.24,250.88
		c0.83,0.17,1.69,0.29,2.52,0.54c0.41,5.39,0.24,10.85,0.13,16.25c0.09,1.35-1.76,0.88-2.53,1.23c-0.05,0.6-0.09,1.2-0.13,1.81
		c5.55,0.09,11.1,0.02,16.65,0.02c0.3-2.04,0.59-4.08,0.9-6.12c-1.04-0.14-2.08-0.27-3.1-0.39c-0.47,1.37-0.82,2.82-1.59,4.06
		c-1.77,0.06-3.79,0.52-5.42-0.22c-0.66-2.17-0.14-4.66-0.37-6.95c2.34-0.02,4.69-0.01,7.03,0.05c0-0.95,0-1.89,0.01-2.83
		c-2.35,0.09-4.69,0.07-7.02,0.04c0.08-2.3,0.13-4.59,0.09-6.89c1.93-0.04,3.87-0.04,5.81-0.05c0.29,1.42,0.65,2.83,0.93,4.26
		c0.98,0.01,1.96,0.03,2.95,0.05c0.03-2.23,0.01-4.46-0.06-6.69c-5.55,0.09-11.09,0.07-16.63,0.02
		C220.36,249.67,220.3,250.27,220.24,250.88"/>
	<path class="st3" d="M31.32,245.51c2.96,0.09,5.92,0.11,8.88-0.03c0.02,0.43,0.07,1.27,0.09,1.7c-0.45,0.09-1.36,0.27-1.81,0.35
		c0.52,5.73,2.51,11.27,4.37,16.69c1.17-3.32,2.19-6.71,3.21-10.09c-0.5-2.25-1.26-4.45-2.32-6.5c-0.31-0.1-0.94-0.3-1.26-0.39
		c-0.01-0.43-0.03-1.3-0.04-1.74c3.03,0.08,6.06,0.07,9.1,0.02c-0.04,0.41-0.12,1.22-0.17,1.62c-0.72,0.2-1.43,0.4-2.14,0.62
		c1.06,5.63,2.74,11.13,4.76,16.48c1.22-3.51,2.35-7.05,3.31-10.63c0.18,0.09,0.54,0.27,0.72,0.36c0.2-2.01,0.78-3.96,1.25-5.92
		c-0.93-0.51-1.98-0.66-3.01-0.82c-0.06-0.57-0.11-1.14-0.17-1.7c2.69,0,5.39,0.02,8.08,0.01c-0.07,0.57-0.15,1.14-0.23,1.72
		c-2.08,0.79-2.84,3.08-3.29,5.06c-0.63,3.11-1.87,6.04-2.64,9.12c-0.18-0.06-0.54-0.15-0.72-0.2c-0.77,3.21-1.99,6.29-2.8,9.5
		c-1.15,0.01-2.3,0.01-3.45,0.01c-1.17-4.18-2.38-8.36-3.72-12.49c-1.46,4.11-2.7,8.29-3.87,12.48c-1.16,0.01-2.32,0.01-3.48,0.02
		c-1.56-6.52-3.9-12.82-5.66-19.28c-0.59-1.6-1.1-3.58-2.85-4.28C31.43,246.79,31.36,245.94,31.32,245.51"/>
	<path class="st4" d="M242.21,248.92c3.91,0.6,7.88,0.02,11.82,0.16c2.02,0.04,4.32,0.99,5.02,3.05c0.42,1.95,0.71,4.19-0.46,5.96
		c-0.79,1.36-2.37,1.86-3.73,2.42c1.44,2.31,2.78,4.69,4.35,6.92c0.5,0.81,1.4,1.19,2.23,1.57c0.01,0.43,0.03,1.3,0.04,1.73
		c-1.9,0.01-3.79,0.01-5.68-0.01c-1.79-3.12-3.6-6.24-5.4-9.36c-0.28-0.07-0.86-0.23-1.15-0.31c-0.07,2.5-0.01,5,0.22,7.49
		c0.8,0.09,1.59,0.18,2.4,0.27c0.02,0.63,0.04,1.27,0.07,1.91c-3.25-0.15-6.51-0.1-9.76-0.02c0.02-0.47,0.06-1.41,0.08-1.88
		c0.78-0.07,1.56-0.13,2.35-0.19c0.64-5.73,0.17-11.53,0.22-17.28c-0.86-0.13-1.73-0.25-2.58-0.36
		C242.23,250.28,242.22,249.6,242.21,248.92 M249.25,251.27c0.02,2.66-0.07,5.31-0.07,7.97c1.82,0.07,4.04,0.02,5.13-1.7
		c1.09-1.7,0.2-3.63-0.14-5.4C252.71,251.11,250.94,251.23,249.25,251.27"/>
	<path class="st4" d="M85.83,249.08c3.56,0.17,7.13,0.06,10.7-0.02c2.18-0.08,4.79,0.44,5.89,2.56c0.8,2.13,0.99,4.79-0.41,6.73
		c-0.83,1.19-2.3,1.63-3.55,2.24c1.52,2.3,2.84,4.72,4.44,6.97c0.46,0.81,1.4,1.07,2.22,1.4c0.01,0.44,0.03,1.32,0.04,1.77
		c-1.9,0.01-3.8,0.01-5.7,0.01c-2.25-3.25-3.5-7.27-6.44-9.97c-0.32,2.58-0.19,5.19,0.1,7.78c0.78,0.09,1.57,0.18,2.37,0.27
		c0.02,0.47,0.06,1.41,0.08,1.88c-3.25-0.16-6.52-0.12-9.78-0.02c0.04-0.6,0.07-1.2,0.1-1.79c0.83-0.17,1.66-0.31,2.5-0.44
		c0.23-5.72,0.22-11.45-0.04-17.16c-0.83-0.11-1.66-0.22-2.49-0.32C85.85,250.5,85.84,249.55,85.83,249.08 M92.89,251.25
		c0.01,2.7-0.16,5.4-0.02,8.1c1.7-0.1,3.76-0.03,4.87-1.61c1.32-1.66,0.46-3.78,0.06-5.6C96.33,251.15,94.57,251.22,92.89,251.25"/>
	<path class="st4" d="M143.45,249.1c1.09-0.01,2.17-0.01,3.27-0.01c1.66,6.1,3.88,12.02,6.11,17.93c0.4,1.48,2.53,1.85,2.09,3.69
		c-2.83-0.09-5.66-0.09-8.49-0.01c0.02-0.64,0.05-1.28,0.08-1.92c0.47-0.04,1.41-0.12,1.88-0.17c-0.28-1.46-0.72-2.87-1.16-4.28
		c-2.12,0.01-4.25-0.04-6.37,0c-0.46,1.38-0.91,2.77-1.28,4.18c0.46,0.08,1.36,0.25,1.81,0.33c0.01,0.62,0.02,1.24,0.04,1.86
		c-2.32-0.06-4.63-0.06-6.94-0.04c0.05-0.58,0.1-1.17,0.17-1.74c0.85-0.19,1.38-0.7,1.59-1.53c0.2,0.04,0.59,0.12,0.79,0.16
		C139.36,261.46,141.72,255.38,143.45,249.1 M144.06,255.36c-0.84,2.22-1.63,4.45-2.42,6.69c1.58,0.02,3.16,0.02,4.74,0.02
		C145.64,259.82,144.85,257.59,144.06,255.36"/>
	<path class="st4" d="M190.16,249.18c2.53-0.12,5.06-0.12,7.59-0.09c1.39,5.29,2.83,10.59,4.85,15.68
		c1.98-5.13,3.51-10.41,5.1-15.68c2.5-0.01,4.99,0.01,7.49-0.02c-0.01,0.48-0.02,1.45-0.03,1.92c-0.8,0.08-1.58,0.17-2.37,0.25
		c-0.05,5.75,0.17,11.55,0.94,17.24c0.9,0.18,1.81,0.25,2.73,0.36c0.01,0.46,0.02,1.38,0.02,1.84c-3.25-0.03-6.49-0.12-9.73,0.04
		c-0.02-0.65-0.04-1.29-0.06-1.93c0.74-0.09,1.49-0.17,2.25-0.25c0.19-4.58-0.21-9.17-0.44-13.74c-1.77,5.27-3.43,10.59-5.11,15.9
		c-1.14,0.01-2.27,0.01-3.4,0.01c-1.7-5.15-3.03-10.44-5.02-15.49c-0.19,4.39-0.54,8.77-0.47,13.16c0.68,0.15,1.36,0.31,2.05,0.46
		c0.02,0.46,0.06,1.38,0.09,1.85c-2.34-0.08-4.68-0.09-7.01,0.02c-0.01-0.44-0.02-1.32-0.03-1.76c0.7-0.34,2.09-0.2,2.16-1.28
		c0.41-5.4,0.69-10.81,0.86-16.22c-0.85-0.15-1.68-0.36-2.5-0.59C190.13,250.44,190.15,249.6,190.16,249.18"/>
	<path class="st5" d="M70.27,249.06c1.06,0.01,2.14,0.02,3.21,0.04c1.78,6.28,3.98,12.44,6.38,18.51c0.22,0.75,1.07,0.94,1.64,1.37
		c0.02,0.43,0.07,1.28,0.1,1.7c-2.79-0.04-5.58-0.05-8.37,0.02c0.04-0.63,0.1-1.26,0.16-1.88c0.42-0.1,1.27-0.3,1.69-0.41
		c-0.12-1.43-0.69-2.75-1.14-4.09c-2.11,0-4.21,0.02-6.31,0.02c-0.48,1.38-0.9,2.79-1.24,4.21c0.44,0.07,1.33,0.2,1.77,0.27
		c0.01,0.47,0.04,1.4,0.05,1.86c-2.1-0.05-4.19-0.05-6.29,0.02c0.02-0.44,0.06-1.33,0.07-1.78c1.74-0.27,1.96-2.21,2.61-3.52
		C66.79,260.06,68.57,254.57,70.27,249.06 M68.43,262.06c1.58,0.01,3.16,0.01,4.75,0c-0.78-2.25-1.6-4.49-2.33-6.75
		C70.02,257.55,69.18,259.79,68.43,262.06"/>
	<path class="st5" d="M159.02,249.06c2.72,0.06,5.45,0,8.17,0.07c1.32,5.29,2.8,10.56,4.8,15.64c1.96-5.16,3.59-10.43,5.14-15.72
		c2.45,0.07,4.89,0.04,7.34,0.01c0.04,0.62,0.07,1.25,0.12,1.88c-0.82,0.1-1.62,0.2-2.43,0.31c-0.03,5.76,0.17,11.55,0.96,17.26
		c0.53,0.08,1.59,0.24,2.12,0.32c-0.02,0.47-0.05,1.41-0.06,1.88c-3.05-0.12-6.1-0.06-9.14-0.05c0.01-0.62,0.03-1.23,0.06-1.83
		c0.75-0.11,1.51-0.22,2.27-0.33c0.13-4.48-0.25-8.97-0.43-13.44c-2.06,5.14-3.37,10.54-5.26,15.75c-1.11-0.04-2.22-0.09-3.32-0.14
		c-1.61-5.14-3.14-10.31-4.9-15.41c-0.35,4.42-0.71,8.86-0.44,13.28c0.48,0.06,1.44,0.16,1.92,0.21c0.03,0.64,0.07,1.29,0.11,1.94
		c-2.54-0.08-5.08-0.1-7.62,0.02c-0.02-0.47-0.06-1.4-0.07-1.87c0.67-0.1,1.34-0.21,2.02-0.31c0.6-5.71,0.92-11.47,0.93-17.21
		c-0.8-0.12-1.6-0.23-2.39-0.34C158.94,250.51,158.99,249.54,159.02,249.06"/>
	<path class="st6" d="M108.94,249.08c3.4,0.12,6.81,0.08,10.21,0.1c-0.01,0.44-0.01,1.31-0.02,1.75c-0.72,0.12-1.43,0.25-2.14,0.38
		c-0.63,2.4-0.48,4.89-0.52,7.34c2.42-0.02,4.85-0.02,7.28,0c0.02-2.45-0.03-4.9-0.15-7.34c-0.8-0.11-1.6-0.21-2.39-0.31
		c-0.03-0.48-0.07-1.45-0.1-1.93c3.21,0.19,6.43,0.05,9.65,0.14c-0.02,0.41-0.06,1.25-0.08,1.66c-0.79,0.41-2.44,0.12-2.36,1.4
		c-0.37,5.4-0.27,10.86,0.06,16.27c0.79,0.11,1.58,0.21,2.38,0.32c0.01,0.46,0.03,1.38,0.04,1.84c-3.22-0.06-6.45-0.09-9.67,0.02
		c0.02-0.62,0.04-1.23,0.07-1.84c0.75-0.1,1.49-0.22,2.25-0.36c0.52-2.43,0.23-4.95,0.35-7.41c-2.43-0.03-4.87-0.02-7.29-0.02
		c0.02,2.48,0.06,4.97,0.27,7.44c0.8,0.11,1.61,0.24,2.42,0.36c-0.01,0.46-0.04,1.39-0.06,1.85c-3.38-0.17-6.77-0.09-10.15-0.02
		c-0.01-0.48-0.03-1.43-0.04-1.9c0.97-0.06,1.95-0.12,2.93-0.19c0.61-5.73,0.17-11.5,0.26-17.24c-1.06-0.14-2.12-0.3-3.18-0.43
		C108.93,250.49,108.94,249.55,108.94,249.08"/>
	<path class="st7" d="M220.24,250.88c0.06-0.61,0.12-1.21,0.19-1.82c5.54,0.05,11.08,0.07,16.63-0.02c0.07,2.23,0.09,4.46,0.06,6.69
		c-0.99-0.02-1.97-0.04-2.95-0.05c-0.28-1.43-0.64-2.83-0.93-4.26c-1.94,0.01-3.88,0.01-5.81,0.05c0.04,2.3-0.01,4.6-0.09,6.89
		c2.33,0.03,4.68,0.04,7.02-0.04c-0.01,0.94-0.01,1.88-0.01,2.83c-2.34-0.06-4.69-0.07-7.03-0.05c0.23,2.29-0.29,4.78,0.37,6.95
		c1.63,0.73,3.64,0.27,5.42,0.22c0.77-1.24,1.12-2.69,1.59-4.06c1.03,0.12,2.06,0.25,3.1,0.39c-0.3,2.04-0.6,4.08-0.9,6.12
		c-5.55,0-11.1,0.06-16.65-0.02c0.04-0.61,0.08-1.21,0.13-1.81c0.77-0.35,2.62,0.12,2.53-1.23c0.11-5.4,0.28-10.86-0.13-16.25
		C221.93,251.17,221.07,251.04,220.24,250.88"/>
	<path class="st8" d="M249.25,251.27c1.69-0.04,3.46-0.16,4.93,0.87c0.33,1.77,1.22,3.71,0.14,5.4c-1.09,1.72-3.32,1.77-5.13,1.7
		C249.18,256.58,249.27,253.93,249.25,251.27"/>
	<path class="st8" d="M144.06,255.36c0.79,2.23,1.59,4.46,2.32,6.71c-1.59,0-3.17,0-4.74-0.02
		C142.43,259.81,143.22,257.58,144.06,255.36"/>
	<path class="st8" d="M68.43,262.06c0.75-2.27,1.59-4.51,2.41-6.75c0.74,2.26,1.55,4.5,2.33,6.75
		C71.59,262.07,70.01,262.07,68.43,262.06"/>
</g>
</svg>
